<svg width="24" height="24" viewBox="0 0 24 24" fill="none" xmlns="http://www.w3.org/2000/svg">
<rect width="24" height="24" rx="12" fill="#FF9C6A"/>
<path d="M12 18C11.2121 18 10.4319 17.8448 9.7039 17.5433C8.97595 17.2417 8.31451 16.7998 7.75736 16.2426C7.20021 15.6855 6.75825 15.0241 6.45672 14.2961C6.15519 13.5681 6 12.7879 6 12C6 11.2121 6.15519 10.4319 6.45672 9.7039C6.75825 8.97595 7.20021 8.31451 7.75736 7.75736C8.31451 7.20021 8.97595 6.75825 9.7039 6.45672C10.4319 6.15519 11.2121 6 12 6C13.5913 6 15.1174 6.5619 16.2426 7.5621C17.3679 8.56229 18 9.91885 18 11.3333C18 12.0406 17.6839 12.7189 17.1213 13.219C16.5587 13.719 15.7956 14 15 14H13.3333C13.0359 13.9952 12.7454 14.09 12.5081 14.2693C12.2707 14.4487 12.1002 14.7022 12.0235 14.9896C11.9469 15.277 11.9686 15.5818 12.0851 15.8555C12.2016 16.1292 12.4063 16.3561 12.6667 16.5C12.7998 16.6228 12.8911 16.7843 12.9277 16.9616C12.9643 17.139 12.9445 17.3234 12.8709 17.4889C12.7973 17.6544 12.6738 17.7927 12.5176 17.8844C12.3614 17.9761 12.1804 18.0165 12 18" stroke="white" stroke-width="1.5" stroke-linecap="round" stroke-linejoin="round"/>
<path d="M8.99996 11.3333C9.18405 11.3333 9.33329 11.1841 9.33329 11C9.33329 10.8159 9.18405 10.6666 8.99996 10.6666C8.81586 10.6666 8.66663 10.8159 8.66663 11C8.66663 11.1841 8.81586 11.3333 8.99996 11.3333Z" fill="white" stroke="white" stroke-width="1.5" stroke-linecap="round" stroke-linejoin="round"/>
<path d="M12 9.33329C12.1841 9.33329 12.3333 9.18405 12.3333 8.99996C12.3333 8.81586 12.1841 8.66663 12 8.66663C11.8159 8.66663 11.6666 8.81586 11.6666 8.99996C11.6666 9.18405 11.8159 9.33329 12 9.33329Z" fill="white" stroke="white" stroke-width="1.5" stroke-linecap="round" stroke-linejoin="round"/>
<path d="M15 11.3333C15.1841 11.3333 15.3333 11.1841 15.3333 11C15.3333 10.8159 15.1841 10.6666 15 10.6666C14.8159 10.6666 14.6666 10.8159 14.6666 11C14.6666 11.1841 14.8159 11.3333 15 11.3333Z" fill="white" stroke="white" stroke-width="1.5" stroke-linecap="round" stroke-linejoin="round"/>
</svg>
