<svg width="24" height="24" viewBox="0 0 24 24" fill="none" xmlns="http://www.w3.org/2000/svg">
<rect width="24" height="24" rx="12" fill="#887EF9"/>
<path d="M14 10.6666L17.0353 9.14929C17.1369 9.09851 17.2499 9.07454 17.3633 9.07965C17.4768 9.08477 17.5871 9.11879 17.6837 9.17849C17.7804 9.2382 17.8602 9.32161 17.9155 9.4208C17.9709 9.52 17.9999 9.6317 18 9.74529V14.2546C17.9999 14.3682 17.9709 14.4799 17.9155 14.5791C17.8602 14.6783 17.7804 14.7617 17.6837 14.8214C17.5871 14.8811 17.4768 14.9151 17.3633 14.9203C17.2499 14.9254 17.1369 14.9014 17.0353 14.8506L14 13.3333V10.6666Z" stroke="white" stroke-width="1.5" stroke-linecap="round" stroke-linejoin="round"/>
<path d="M12.6667 8H7.33333C6.59695 8 6 8.59695 6 9.33333V14.6667C6 15.403 6.59695 16 7.33333 16H12.6667C13.403 16 14 15.403 14 14.6667V9.33333C14 8.59695 13.403 8 12.6667 8Z" stroke="white" stroke-width="1.5" stroke-linecap="round" stroke-linejoin="round"/>
</svg>
